# xmcd
#
# Track frame offsets:
#	150
#	23135
#	43202
#	63645
#	81475
#	95955
#	117470
#	135187
#	147745
#	159637
#	175217
#	195550
#
# Disc length: 2863 seconds
#
# Revision: 1
# Processed by: cddbd v1.5.1PL0 Copyright (c) Steve Scherf et al.
# Submitted via: CDex 1.50Beta5
#
DISCID=b50b2d0c
DTITLE=田辺守 - 高い塔の天辺で
DYEAR=1991
DGENRE=Pop
TTITLE0=モノローグ
TTITLE1=K
TTITLE2=高い塔の天辺で
TTITLE3=休日
TTITLE4=ダンスもしくはキャンプファイヤーの夜
TTITLE5=水族館
TTITLE6=公園
TTITLE7=学生たちのボート
TTITLE8=インテリア
TTITLE9=アメリカの友人
TTITLE10=退屈な西ゴート王国では
TTITLE11=マーマレード色の夏
EXTD=
EXTT0=
EXTT1=
EXTT2=
EXTT3=
EXTT4=
EXTT5=
EXTT6=
EXTT7=
EXTT8=
EXTT9=
EXTT10=
EXTT11=
PLAYORDER=
